# xmcd CD database file
#
# Track frame offsets:
#	150
#	13370
#	25610
#	39647
#	51514
#	64957
#	79680
#	92145
#	105530
#	120865
#	134600
#	147167
#	161730
#	176470
#	190375
#	203052
#	215872
#	228747
#	242595
#	257057
#	271612
#	284675
#	294970
#	307277
#	319875
#
# Disc length: 4357 seconds
#
# Revision: 9
# Processed by: cddbd v1.5.1PL0 Copyright (c) Steve Scherf et al.
# Submitted via: CDex 1.51
#
DISCID=7f110319
DTITLE=Various Artist - Flashbacks #1 - DrugSongs 1917-1944 - high and low
DYEAR=2000
DGENRE=Jazz
TTITLE0=The Ink Spots: That cat is high [Williams] [1938]
TTITLE1=Champion Jack Dupree: Junker's blues [1940]
TTITLE2=Harry 'The Hipster' Gibson: Who put the benzedrine in Mrs. Murphys Ovaltine [Gibson] [1944]
TTITLE3=Blue Lu Barker: Don't you make me high [Barker/Carter] [1938]
TTITLE4=Kansas Joe and Memphis Minnie: I'm wild about my stuff [Lizzie Douglas] [1930]
TTITLE5=Stuff Smith and His Onyx Club Boys: You're a viper [Howard] [1936]
TTITLE6=McKinney Cotton Pickers: Selling that stuff [Redman] [1929]
TTITLE7=Peter Cleighton with Blind John Davis: Moonshine man blues [Cleighton] [1941]
TTITLE8=Florence Desmond: Cigarettes, Cigars [Gordon/Revel) [1933]
TTITLE9=Mills Blue Rhythm Band: Minnie the Moochers wedding day [Calloway/Mills] [1932]
TTITLE10=Cab Calloway: The ghost of Smokey Joe [Köhler/Bloom] [1939]
TTITLE11=Waring's Pennsylvanians: Let's have another cup of coffee [Berlin] [1932]
TTITLE12=Victoria Spivey and Lonnie Johnson: Dope head blues [Johnson] [1927]
TTITLE13=Ella Fitzgerald and Chick Webb and His Orchestra: Wacky Dust [Webb] [1938]
TTITLE14=Bukka White: Fixin' to die blues [White] [1940]
TTITLE15=Memphis Jug Band: Cocaine habit blues [Hattie Hart] [1930]
TTITLE16=Baron Lee and the Blue Rhythm Band: Reefer Man [Robinson/Russell/Rafaz] [1932]
TTITLE17=Dick Justice: Cocaine [Luke Jordan] [1929]
TTITLE18=Asa Martin: Jake walk papa [Allen/Martin] [1933]
TTITLE19=Louis Armstrong: Kickin' the gong around [Arlen/Koehler] [1932]
TTITLE20=Rosetta Howard and the Harlem Hamfats: The Candy Man [Howard] [1938]
TTITLE21=Ray Noble and the New Mayfair Orchestra: Repeal the blues [Green/Dyrenforth] [1939]
TTITLE22=Gene Krupa and his Orchestra: Feeling high and happy [aus Porky in Wackyland, Krupa] [1938]
TTITLE23=Jean Brady and Big Bill Broonzy: Knockin' myself out [trad.] [1941]
TTITLE24=Herbert Payne: Smoke Clouds [Darewski] [1917]
EXTD=YEAR: 2000
EXTT0=
EXTT1=
EXTT2=
EXTT3=
EXTT4=
EXTT5=
EXTT6=
EXTT7=
EXTT8=
EXTT9=
EXTT10=
EXTT11=
EXTT12=
EXTT13=
EXTT14=
EXTT15=
EXTT16=
EXTT17=
EXTT18=
EXTT19=
EXTT20=
EXTT21=
EXTT22=
EXTT23=
EXTT24=
PLAYORDER=
